<svg width="204" height="57" viewBox="0 0 204 57" fill="none" xmlns="http://www.w3.org/2000/svg">
<g clip-path="url(#clip0_201_2)">
<path d="M0.104736 53.1752L4.88453 40.9482H6.67695L11.4568 53.1752H9.66433L8.31999 49.5108H3.16679L1.78513 53.1752H0.104736ZM5.74339 42.4065L3.68958 48.0899H7.83452L5.74339 42.4065Z" fill="#ED6E57"/>
<path d="M19.9339 47.1553H18.4402C18.2161 45.9961 17.4693 45.3979 16.237 45.3979C14.4073 45.3979 13.4737 46.557 13.4737 48.8379C13.4737 49.7353 13.6604 50.4831 14.0712 51.044C14.5193 51.717 15.1914 52.0535 16.0503 52.0535C17.4693 52.0535 18.2908 51.3431 18.4775 49.8848H19.9712C19.8219 50.9692 19.4111 51.8291 18.7389 52.4274C18.0667 53.0257 17.1706 53.3248 16.0876 53.3248C14.7807 53.3248 13.7351 52.9135 13.0255 52.0535C12.3161 51.2309 11.98 50.1466 11.98 48.8005C11.98 47.417 12.3161 46.2952 13.0255 45.4353C13.7724 44.5379 14.818 44.0518 16.1623 44.0518C17.2079 44.0518 18.0667 44.3135 18.7389 44.7996C19.4111 45.3605 19.8219 46.1457 19.9339 47.1553Z" fill="#ED6E57"/>
<path d="M29.0824 47.1553H27.5888C27.3647 45.9961 26.6179 45.3979 25.3856 45.3979C23.5558 45.3979 22.6223 46.557 22.6223 48.8379C22.6223 49.7353 22.809 50.4831 23.2197 51.044C23.6678 51.717 24.34 52.0535 25.1989 52.0535C26.6179 52.0535 27.4394 51.3431 27.6261 49.8848H29.1198C28.9704 50.9692 28.5596 51.8291 27.8875 52.4274C27.2154 53.0257 26.3191 53.3248 25.2362 53.3248C23.9292 53.3248 22.8837 52.9135 22.1742 52.0535C21.4646 51.2309 21.1285 50.1466 21.1285 48.8005C21.1285 47.417 21.4646 46.2952 22.1742 45.4353C22.921 44.5379 23.9666 44.0518 25.3109 44.0518C26.3565 44.0518 27.2154 44.3135 27.8875 44.7996C28.597 45.3605 29.0078 46.1457 29.0824 47.1553Z" fill="#ED6E57"/>
<path d="M38.6045 51.9788V53.1005C38.3431 53.25 38.0071 53.3248 37.559 53.3248C36.7374 53.3248 36.3266 52.8761 36.3266 51.9413C35.5425 52.8387 34.4969 53.3248 33.2273 53.3248C32.3684 53.3248 31.6589 53.1379 31.1734 52.7266C30.6133 52.2779 30.3146 51.6422 30.3146 50.8196C30.3146 49.9222 30.6133 49.2492 31.2481 48.8005C31.6589 48.5014 32.3684 48.277 33.302 48.0901C34.0114 47.9779 34.6836 47.8657 35.3931 47.7161C35.9906 47.5666 36.2893 47.23 36.2893 46.7813C36.2893 45.8092 35.6172 45.3231 34.3102 45.3231C32.8912 45.3231 32.1443 45.8839 32.107 47.0057H30.6507C30.688 45.9961 31.0987 45.2109 31.8083 44.6875C32.4431 44.2387 33.302 44.0518 34.3849 44.0518C36.588 44.0518 37.7083 44.8744 37.7083 46.4822V51.044C37.7083 51.4178 37.7083 51.6796 37.7457 51.7918C37.8204 51.9413 37.9324 52.0161 38.1564 52.0161C38.3058 52.0909 38.4551 52.0535 38.6045 51.9788ZM36.2519 50.0718V48.5761C36.0279 48.763 35.6545 48.8752 35.0944 48.9874C34.6089 49.0622 34.1235 49.137 33.638 49.1743C32.4431 49.3613 31.8456 49.9222 31.8456 50.7822C31.8456 51.6422 32.4058 52.0909 33.5633 52.0909C34.4222 52.0909 35.1317 51.8665 35.6172 51.3805C36.0279 51.0065 36.2519 50.5579 36.2519 50.0718Z" fill="#ED6E57"/>
<path d="M47.8652 40.9478V53.1747H46.4088V51.9782H46.3714C45.9234 52.9129 44.9898 53.399 43.5335 53.399C42.2265 53.399 41.2183 52.9503 40.4714 52.0155C39.7992 51.1555 39.4631 50.0712 39.4631 48.7625C39.4631 47.4538 39.7992 46.3694 40.4714 45.5095C41.1809 44.6121 42.1891 44.126 43.4961 44.126C44.0189 44.126 44.5417 44.2382 45.0271 44.4251C45.6246 44.6495 46.0727 45.0234 46.3714 45.5095H46.4088V40.9478H47.8652ZM41.0316 48.7999C41.0316 49.6973 41.2556 50.4451 41.7037 51.0434C42.1891 51.7164 42.8987 52.053 43.7575 52.053C44.6537 52.053 45.3632 51.7164 45.8487 51.006C46.2594 50.4078 46.4835 49.6225 46.4835 48.7251C46.4835 47.753 46.2594 47.0051 45.8487 46.4069C45.3632 45.7338 44.6537 45.3973 43.7202 45.3973C42.7866 45.3973 42.1144 45.7338 41.6663 46.4442C41.2183 47.0425 41.0316 47.8277 41.0316 48.7999Z" fill="#ED6E57"/>
<path d="M56.1928 50.3334H57.6118C57.4251 51.3056 56.977 52.0534 56.3422 52.5769C55.67 53.1003 54.8485 53.3621 53.8403 53.3621C52.4586 53.3621 51.4131 52.9134 50.6662 52.0534C49.9567 51.2308 49.6206 50.1091 49.5833 48.7256C49.546 47.4169 49.9567 46.2952 50.7409 45.4351C51.5251 44.5751 52.5333 44.1265 53.7283 44.1265C55.1472 44.1265 56.2302 44.6873 56.9397 45.8464C57.5371 46.7812 57.7985 47.903 57.7238 49.1743H51.1143C51.077 49.9969 51.301 50.6699 51.7492 51.1934C52.2346 51.7916 52.9441 52.0534 53.8776 52.0534C55.1846 52.0908 55.9314 51.4925 56.1928 50.3334ZM51.1517 47.903H56.2302C56.1928 47.1925 55.9314 46.5943 55.446 46.1082C54.9605 45.6221 54.3631 45.3978 53.6536 45.3978C52.9067 45.3978 52.3466 45.6221 51.8985 46.1082C51.4504 46.5943 51.2263 47.1925 51.1517 47.903Z" fill="#ED6E57"/>
<path d="M59.2921 53.1752V44.3134H60.6738V45.6221H60.7111C61.3833 44.6125 62.3169 44.1265 63.5491 44.1265C64.8188 44.1265 65.6403 44.6125 65.9764 45.6221C66.6112 44.6125 67.5448 44.1265 68.7397 44.1265C70.6815 44.1265 71.6901 44.9865 71.6901 46.7065V53.2125H70.2334V47.4169C70.2334 46.1082 69.6733 45.4351 68.5156 45.4351C67.8062 45.4351 67.246 45.6221 66.8353 46.0334C66.4245 46.4447 66.2004 47.0056 66.2004 47.6786V53.1752H64.7441V47.3795C64.7441 46.0708 64.184 45.3978 63.101 45.3978C62.3542 45.3978 61.7194 45.6969 61.2713 46.2577C60.9352 46.7065 60.7485 47.1925 60.7485 47.6412V53.1377H59.2921V53.1752Z" fill="#ED6E57"/>
<path d="M75.3867 40.9478V42.7425H73.9301V40.9478H75.3867ZM73.9301 53.1747V44.3129H75.3867V53.1747H73.9301Z" fill="#ED6E57"/>
<path d="M85.4686 51.9788V53.1005C85.2077 53.25 84.8711 53.3248 84.4229 53.3248C83.6016 53.3248 83.1906 52.8761 83.1906 51.9413C82.4065 52.8387 81.3608 53.3248 80.0914 53.3248C79.2329 53.3248 78.5232 53.1379 78.0379 52.7266C77.4775 52.2779 77.1787 51.6422 77.1787 50.8196C77.1787 49.9222 77.4775 49.2492 78.1122 48.8005C78.5232 48.5014 79.2329 48.277 80.1664 48.0901C80.8755 47.9779 81.5481 47.8657 82.2571 47.7161C82.8547 47.5666 83.1535 47.23 83.1535 46.7813C83.1535 45.8092 82.4816 45.3231 81.1743 45.3231C79.7554 45.3231 79.0085 45.8839 78.9713 47.0057H77.5147C77.5525 45.9961 77.9628 45.2109 78.6726 44.6875C79.3073 44.2387 80.1664 44.0518 81.2493 44.0518C83.4522 44.0518 84.5723 44.8744 84.5723 46.4822V51.044C84.5723 51.4178 84.5723 51.6796 84.6102 51.7918C84.6845 51.9413 84.7967 52.0161 85.0204 52.0161C85.1698 52.0909 85.3192 52.0535 85.4686 51.9788ZM83.1163 50.0718V48.5761C82.8919 48.763 82.5187 48.8752 81.9584 48.9874C81.473 49.0622 80.9877 49.137 80.5024 49.1743C79.3073 49.3613 78.7097 49.9222 78.7097 50.7822C78.7097 51.6422 79.2701 52.0909 80.4273 52.0909C81.2865 52.0909 81.9962 51.8665 82.4816 51.3805C82.8919 51.0065 83.1163 50.5579 83.1163 50.0718Z" fill="#ED6E57"/>
<path d="M91.8171 53.1747V40.9478H95.9993C99.9205 40.9478 101.862 42.8921 101.862 46.7808C101.862 51.0434 99.9205 53.1747 95.9993 53.1747H91.8171ZM93.4604 42.2939V51.7912H96.1486C97.12 51.7912 97.9413 51.5669 98.6132 51.0807C99.696 50.2956 100.256 48.9121 100.256 47.0051C100.256 43.9016 98.9119 42.3312 96.1865 42.3312H93.4604V42.2939Z" fill="#ED6E57"/>
<path d="M105.148 40.9478V42.7425H103.692V40.9478H105.148ZM103.692 53.1747V44.3129H105.148V53.1747H103.692Z" fill="#ED6E57"/>
<path d="M115.044 44.3142V52.4281C115.044 55.3446 113.662 56.7655 110.936 56.7655C109.965 56.7655 109.181 56.5785 108.508 56.1672C107.724 55.7185 107.314 55.0454 107.276 54.1481H108.733C108.77 54.6341 109.032 55.0081 109.554 55.2698C109.965 55.4942 110.45 55.6064 111.011 55.6064C112.766 55.6064 113.662 54.4846 113.662 52.2411V51.6429H113.625C113.4 52.1663 113.027 52.5776 112.467 52.8394C111.982 53.1011 111.459 53.2507 110.861 53.2507C109.591 53.2507 108.621 52.802 107.911 51.9046C107.239 51.082 106.903 50.035 106.903 48.7637C106.903 47.5298 107.202 46.4829 107.799 45.6603C108.546 44.6133 109.591 44.0898 111.011 44.0898C112.243 44.0898 113.102 44.5759 113.662 45.5481V44.2768H115.044V44.3142ZM110.973 51.9793C111.869 51.9793 112.542 51.6055 113.027 50.8951C113.438 50.2968 113.625 49.5115 113.625 48.5768C113.625 47.7168 113.438 46.969 113.064 46.4081C112.616 45.7351 111.944 45.3985 111.122 45.3985C110.227 45.3985 109.591 45.7351 109.106 46.3707C108.696 46.9316 108.471 47.6794 108.471 48.6142C108.471 49.549 108.658 50.2968 108.994 50.8951C109.442 51.6055 110.077 51.9793 110.973 51.9793Z" fill="#ED6E57"/>
<path d="M118.778 40.9478V42.7425H117.322V40.9478H118.778ZM117.322 53.1747V44.3129H118.778V53.1747H117.322Z" fill="#ED6E57"/>
<path d="M123.035 41.6585V44.3133H124.79V45.5846H123.035V51.0811C123.035 51.455 123.147 51.6793 123.333 51.7915C123.446 51.8663 123.707 51.8663 124.118 51.8663H124.79V53.1376H123.669C122.885 53.1376 122.363 53.0254 122.064 52.7636C121.728 52.5019 121.579 51.9785 121.579 51.1932V45.5472H120.085V44.2759H121.579V41.6211H123.035V41.6585Z" fill="#ED6E57"/>
<path d="M134.238 51.9788V53.1005C133.976 53.25 133.64 53.3248 133.192 53.3248C132.37 53.3248 131.96 52.8761 131.96 51.9413C131.176 52.8387 130.13 53.3248 128.861 53.3248C128.002 53.3248 127.292 53.1379 126.807 52.7266C126.247 52.2779 125.948 51.6422 125.948 50.8196C125.948 49.9222 126.247 49.2492 126.882 48.8005C127.292 48.5014 128.002 48.277 128.935 48.0901C129.645 47.9779 130.317 47.8657 131.027 47.7161C131.624 47.5666 131.923 47.23 131.923 46.7813C131.923 45.8092 131.25 45.3231 129.944 45.3231C128.524 45.3231 127.777 45.8839 127.74 47.0057H126.284C126.321 45.9961 126.732 45.2109 127.441 44.6875C128.076 44.2387 128.935 44.0518 130.018 44.0518C132.221 44.0518 133.342 44.8744 133.342 46.4822V51.044C133.342 51.4178 133.342 51.6796 133.379 51.7918C133.453 51.9413 133.565 52.0161 133.79 52.0161C133.939 52.0909 134.089 52.0535 134.238 51.9788ZM131.885 50.0718V48.5761C131.661 48.763 131.287 48.8752 130.728 48.9874C130.242 49.0622 129.756 49.137 129.271 49.1743C128.076 49.3613 127.479 49.9222 127.479 50.7822C127.479 51.6422 128.039 52.0909 129.197 52.0909C130.055 52.0909 130.765 51.8665 131.25 51.3805C131.661 51.0065 131.885 50.5579 131.885 50.0718Z" fill="#ED6E57"/>
<path d="M135.657 53.1747V40.9478H137.113V53.1747H135.657Z" fill="#ED6E57"/>
<path d="M145.478 50.3334H146.897C146.71 51.3056 146.262 52.0534 145.627 52.5769C144.955 53.1003 144.133 53.3621 143.125 53.3621C141.743 53.3621 140.698 52.9134 139.951 52.0534C139.241 51.2308 138.905 50.1091 138.868 48.7256C138.83 47.4169 139.241 46.2952 140.025 45.4351C140.81 44.5751 141.818 44.1265 143.013 44.1265C144.432 44.1265 145.515 44.6873 146.225 45.8464C146.821 46.7812 147.083 47.903 147.009 49.1743H140.399C140.361 49.9969 140.586 50.6699 141.034 51.1934C141.519 51.7916 142.229 52.0534 143.163 52.0534C144.469 52.0908 145.216 51.4925 145.478 50.3334ZM140.436 47.903H145.515C145.478 47.1925 145.216 46.5943 144.731 46.1082C144.245 45.6221 143.648 45.3978 142.938 45.3978C142.191 45.3978 141.632 45.6221 141.183 46.1082C140.735 46.5943 140.511 47.1925 140.436 47.903Z" fill="#ED6E57"/>
<path d="M153.543 53.1747V40.9478H155.186V51.7912H161.647V53.1747H153.543Z" fill="#ED6E57"/>
<path d="M164.373 40.9478V42.7425H162.917V40.9478H164.373ZM162.917 53.1747V44.3129H164.373V53.1747H162.917Z" fill="#ED6E57"/>
<path d="M174.231 44.3142V52.4281C174.231 55.3446 172.849 56.7655 170.124 56.7655C169.152 56.7655 168.368 56.5785 167.696 56.1672C166.912 55.7185 166.501 55.0454 166.464 54.1481H167.92C167.958 54.6341 168.219 55.0081 168.742 55.2698C169.152 55.4942 169.638 55.6064 170.198 55.6064C171.953 55.6064 172.849 54.4846 172.849 52.2411V51.6429H172.812C172.588 52.1663 172.214 52.5776 171.655 52.8394C171.169 53.1011 170.646 53.2507 170.049 53.2507C168.779 53.2507 167.809 52.802 167.099 51.9046C166.427 51.082 166.09 50.035 166.09 48.7637C166.09 47.5298 166.389 46.4829 166.987 45.6603C167.733 44.6133 168.779 44.0898 170.198 44.0898C171.43 44.0898 172.289 44.5759 172.849 45.5481V44.2768H174.231V44.3142ZM170.161 51.9793C171.057 51.9793 171.729 51.6055 172.214 50.8951C172.625 50.2968 172.812 49.5115 172.812 48.5768C172.812 47.7168 172.625 46.969 172.252 46.4081C171.804 45.7351 171.131 45.3985 170.31 45.3985C169.414 45.3985 168.779 45.7351 168.294 46.3707C167.883 46.9316 167.659 47.6794 167.659 48.6142C167.659 49.549 167.846 50.2968 168.182 50.8951C168.63 51.6055 169.302 51.9793 170.161 51.9793Z" fill="#ED6E57"/>
<path d="M183.754 44.3133V53.175H182.372V51.7541H182.335C181.737 52.8385 180.766 53.362 179.459 53.362C177.443 53.362 176.397 52.2777 176.397 50.1089V44.2759H177.853V50.2585C177.853 50.782 178.003 51.2306 178.339 51.5672C178.675 51.9037 179.086 52.0533 179.646 52.0533C180.505 52.0533 181.14 51.7916 181.625 51.2681C182.073 50.782 182.26 50.1089 182.26 49.2863V44.2759H183.754V44.3133Z" fill="#ED6E57"/>
<path d="M185.882 53.1756V44.3139H187.264V46.1834H187.301C188.011 44.7626 189.094 44.0522 190.55 44.1269V45.66C188.421 45.66 187.338 46.8565 187.338 49.2495V53.1756H185.882Z" fill="#ED6E57"/>
<path d="M193.163 40.9478V42.7425H191.707V40.9478H193.163ZM191.707 53.1747V44.3129H193.163V53.1747H191.707Z" fill="#ED6E57"/>
<path d="M203.246 51.9788V53.1005C202.985 53.25 202.649 53.3248 202.2 53.3248C201.379 53.3248 200.968 52.8761 200.968 51.9413C200.184 52.8387 199.138 53.3248 197.869 53.3248C197.01 53.3248 196.301 53.1379 195.815 52.7266C195.255 52.2779 194.956 51.6422 194.956 50.8196C194.956 49.9222 195.255 49.2492 195.89 48.8005C196.301 48.5014 197.01 48.277 197.944 48.0901C198.653 47.9779 199.326 47.8657 200.035 47.7161C200.632 47.5666 200.931 47.23 200.931 46.7813C200.931 45.8092 200.259 45.3231 198.952 45.3231C197.533 45.3231 196.786 45.8839 196.749 47.0057H195.292C195.33 45.9961 195.74 45.2109 196.45 44.6875C197.085 44.2387 197.944 44.0518 199.027 44.0518C201.23 44.0518 202.35 44.8744 202.35 46.4822V51.044C202.35 51.4178 202.35 51.6796 202.388 51.7918C202.462 51.9413 202.574 52.0161 202.798 52.0161C202.947 52.0909 203.097 52.0535 203.246 51.9788ZM200.894 50.0718V48.5761C200.669 48.763 200.296 48.8752 199.736 48.9874C199.251 49.0622 198.765 49.137 198.28 49.1743C197.085 49.3613 196.487 49.9222 196.487 50.7822C196.487 51.6422 197.048 52.0909 198.205 52.0909C199.064 52.0909 199.774 51.8665 200.259 51.3805C200.669 51.0065 200.894 50.5579 200.894 50.0718Z" fill="#ED6E57"/>
<path d="M43.5337 30.9275V15.4102H46.2596V30.9275H43.5337Z" fill="#20365D"/>
<path d="M48.089 17.7658V15.4102H60.636V17.7658H55.7068V30.9275H52.9808V17.7658H48.089Z" fill="#20365D"/>
<path d="M61.4952 25.7681H64.2212C64.2212 26.8898 64.5946 27.7499 65.3788 28.3481C66.051 28.8716 66.9845 29.096 68.1422 29.096C69.2624 29.096 70.0839 28.8342 70.6815 28.3481C71.1668 27.9368 71.4284 27.376 71.4284 26.7403C71.4284 25.7681 71.0175 25.1325 70.1583 24.8333C70.0466 24.796 68.5156 24.3472 65.5282 23.5621C63.2503 22.9264 62.0927 21.6177 62.0927 19.636C62.0927 18.1777 62.6902 17.0186 63.8851 16.196C64.9307 15.4482 66.2377 15.0742 67.7687 15.0742C69.4491 15.0742 70.8681 15.4855 71.9509 16.3455C73.1089 17.2429 73.7064 18.4768 73.7064 20.0473H70.9803C70.8681 18.2151 69.7478 17.3177 67.6567 17.3177C66.9098 17.3177 66.275 17.4673 65.7523 17.729C65.1174 18.103 64.7813 18.6264 64.7813 19.3369C64.7813 20.3464 65.3788 20.9821 66.6111 21.3186C67.8434 21.6551 69.3371 22.029 71.0925 22.5151C72.0632 22.8142 72.8101 23.3377 73.3698 24.1229C73.8558 24.8333 74.1167 25.6186 74.1167 26.4785C74.1167 28.0864 73.482 29.3577 72.1754 30.2177C71.0546 30.9655 69.6358 31.3394 67.9554 31.3394C66.0883 31.3394 64.5573 30.8907 63.4371 30.0307C62.1674 28.9838 61.4952 27.6003 61.4952 25.7681Z" fill="#20365D"/>
<path d="M127.927 30.9275V15.4102H129.981V30.9275H127.927Z" fill="#486A99"/>
<path d="M146.411 20.0847H144.357C144.133 19.0003 143.648 18.1777 142.864 17.6169C142.08 17.0559 141.146 16.7568 140.025 16.7568C138.308 16.7568 136.963 17.3925 136.03 18.7012C135.209 19.8229 134.798 21.2812 134.798 23.0386C134.798 24.9455 135.209 26.4785 136.03 27.6377C136.963 28.909 138.308 29.5446 140.063 29.5446C141.37 29.5446 142.453 29.1333 143.237 28.2734C143.984 27.4881 144.432 26.4038 144.506 25.0951H146.561C146.374 27.0394 145.664 28.5725 144.506 29.6568C143.349 30.7412 141.781 31.302 139.839 31.302C137.524 31.302 135.731 30.5168 134.462 28.9464C133.267 27.4881 132.669 25.5811 132.669 23.2255C132.669 20.8699 133.304 18.9629 134.574 17.4673C135.918 15.8595 137.71 15.0742 140.025 15.0742C141.706 15.0742 143.125 15.4855 144.245 16.3455C145.44 17.2429 146.15 18.4768 146.411 20.0847Z" fill="#486A99"/>
<path d="M152.61 30.9282V17.1682H147.456V15.4482H159.854V17.1682H154.701V30.9282H152.61Z" fill="#486A99"/>
<path d="M102.161 15.3354C104.037 15.3354 105.559 13.8121 105.559 11.9329C105.559 10.0537 104.037 8.53027 102.161 8.53027C100.284 8.53027 98.7626 10.0537 98.7626 11.9329C98.7626 13.8121 100.284 15.3354 102.161 15.3354Z" fill="#A7C5E5"/>
<path d="M122.026 30.8524C120.346 32.535 117.582 32.4976 115.94 30.815L102.87 17.5785L97.7912 22.5889C96.1108 24.2716 93.3475 24.2341 91.7043 22.5515C90.883 21.6916 90.4348 20.6072 90.472 19.4854C90.472 18.3637 90.9202 17.2794 91.7421 16.4193L98.0156 10.2124C98.9863 11.895 100.816 13.0542 102.908 13.0916C104.998 13.0916 106.828 11.9698 107.837 10.2872L122.064 24.7202C123.707 26.4402 123.707 29.1698 122.026 30.8524Z" fill="#A7C5E5"/>
<path d="M120.757 17.7656L106.529 3.3326C105.521 5.0152 103.692 6.13694 101.6 6.13694C99.5089 6.13694 97.6791 4.97781 96.7084 3.25781L93.7585 6.17432C97.3803 6.47345 99.7333 8.60479 100.853 11.3343L101.563 10.6239L114.633 23.8604C116.313 25.543 119.039 25.5803 120.72 23.8978C122.437 22.2151 122.437 19.4856 120.757 17.7656Z" fill="#EB5E61"/>
<path d="M103.804 2.43507C102.161 0.715079 99.3973 0.640297 97.6797 2.3229L92.6006 7.18377C93.7585 8.67942 94.5054 10.4742 94.767 12.3811C95.812 12.9046 96.7084 13.6898 97.2687 14.6994L103.654 8.56722C104.513 7.74462 104.961 6.62289 104.998 5.53855C105.036 4.41681 104.625 3.29507 103.804 2.43507Z" fill="#F29D38"/>
<path d="M98.3144 6.17451C98.3144 5.57625 98.4638 5.05278 98.6504 4.5293C98.0156 4.64147 97.3809 4.67886 96.7083 4.67886C96.5218 4.67886 96.3352 4.64147 96.1487 4.64147C95.4017 5.31451 94.5426 5.91277 93.5348 6.32407L80.2408 18.8501C78.4853 20.4953 78.411 23.2623 80.0542 24.9823C81.6968 26.7397 84.4601 26.8145 86.1783 25.1693L101.041 11.185C99.3222 10.1754 98.2394 8.26843 98.3144 6.17451Z" fill="#F29D38"/>
<path d="M110.637 18.6259C110.973 17.5041 111.571 16.5319 112.43 15.6719C113.214 14.7745 114.184 14.1389 115.304 13.765C115.641 13.5781 115.977 13.4284 116.35 13.3163L104.662 1.31371C102.982 -0.406282 100.256 -0.443674 98.5753 1.23893C96.8577 2.92154 96.8206 5.65109 98.501 7.33369L110.301 19.4485C110.375 19.1867 110.488 18.8876 110.637 18.6259Z" fill="#EB5E61"/>
<path d="M101.825 17.8408C104.217 17.8408 106.156 15.8988 106.156 13.5034C106.156 11.1079 104.217 9.16602 101.825 9.16602C99.4324 9.16602 97.4932 11.1079 97.4932 13.5034C97.4932 15.8988 99.4324 17.8408 101.825 17.8408Z" fill="white"/>
</g>
<defs>
<clipPath id="clip0_201_2">
<rect width="203.39" height="56.765" fill="white"/>
</clipPath>
</defs>
</svg>
